<?xml version="1.0" encoding="UTF-8" standalone="no"?>
<!-- Created with Inkscape (http://www.inkscape.org/) -->

<svg width="107.99999" height="107.99999" viewBox="0 0 28.574998 28.574998" version="1.1" id="svg1"
    xml:space="preserve" inkscape:version="1.4.3 (0d15f75042, 2025-12-25)" sodipodi:docname="logo.svg"
    xmlns:inkscape="http://www.inkscape.org/namespaces/inkscape" xmlns:sodipodi="http://sodipodi.sourceforge.net/DTD/sodipodi-0.dtd"
    xmlns="http://www.w3.org/2000/svg"><sodipodi:namedview
     id="namedview1"
     pagecolor="#ffffff"
     bordercolor="#000000"
     borderopacity="0.25"
     inkscape:showpageshadow="2"
     inkscape:pageopacity="0.0"
     inkscape:pagecheckerboard="0"
     inkscape:deskcolor="#d1d1d1"
     inkscape:document-units="px"
     inkscape:zoom="5.8054181"
     inkscape:cx="52.795508"
     inkscape:cy="58.910486"
     inkscape:window-width="3440"
     inkscape:window-height="1368"
     inkscape:window-x="0"
     inkscape:window-y="0"
     inkscape:window-maximized="1"
     inkscape:current-layer="g15" /><defs
     id="defs1" /><rect
     style="fill:#66558f;fill-opacity:1"
     id="rect1"
     width="108"
     height="108"
     x="6.694728e-08"
     y="0.17225294"
     ry="0"
     transform="scale(0.26458333)" /><g
     inkscape:label="Layer 1"
     inkscape:groupmode="layer"
     id="layer1"
     transform="translate(-90.752084,-134.14375)"><g
       inkscape:label="Layer 1 separated"
       id="g15"
       style="display:inline"
       transform="matrix(0.26458333,0,0,0.26458333,90.752084,134.14375)"><path
         id="rect10"
         style="fill:#ffffff;stroke-width:0.911465"
         d="M 47.132813 29.333985 C 40.965389 29.333985 36 34.299373 36 40.466797 L 36 66.201173 C 36 69.787357 37.679143 72.966615 40.296876 75.000001 L 39.900391 75.000001 L 35 82.000001 L 39.960938 81.910157 L 43.679688 76.791017 C 44.766062 77.142914 45.926228 77.333985 47.132813 77.333985 L 60.867188 77.333985 C 62.067908 77.333985 63.222879 77.145496 64.304688 76.796876 L 68.019532 81.910157 L 72.98047 82.000001 L 68.080079 75.000001 L 67.703126 75.000001 C 70.320858 72.966615 72.000001 69.787357 72.000001 66.201173 L 72.000001 40.466797 C 72.000001 34.299373 67.034613 29.333985 60.867188 29.333985 L 47.132813 29.333985 z M 43.705079 35 L 51.000001 35 L 51.000001 53.000001 L 43.705079 53.000001 C 41.652496 53.000001 40.000001 51.347505 40.000001 49.294923 L 40.000001 38.705079 C 40.000001 36.652496 41.652496 35 43.705079 35 z M 57.000001 35 L 64.294923 35 C 66.347505 35 68.000001 36.652496 68.000001 38.705079 L 68.000001 49.294923 C 68.000001 51.347505 66.347505 53.000001 64.294923 53.000001 L 57.000001 53.000001 L 57.000001 35 z M 44.750001 57.000001 L 63.250001 57.000001 C 65.881856 57.000001 68.000001 59.118146 68.000001 61.750001 L 68.000001 68.250001 C 68.000001 70.881856 65.881856 73.000001 63.250001 73.000001 L 44.750001 73.000001 C 42.118145 73.000001 40.000001 70.881856 40.000001 68.250001 L 40.000001 61.750001 C 40.000001 59.118146 42.118145 57.000001 44.750001 57.000001 z " /><circle
         style="fill:#ffffff;stroke-width:0.8"
         id="circle13"
         cx="46"
         cy="65"
         r="4" /><circle
         style="fill:#ffffff;stroke-width:0.8"
         id="circle14"
         cx="62"
         cy="65"
         r="4" /></g></g></svg>
